<?xml version="1.0" standalone="no"?>
<!DOCTYPE svg PUBLIC "-//W3C//DTD SVG 20010904//EN"
 "http://www.w3.org/TR/2001/REC-SVG-20010904/DTD/svg10.dtd">
<svg version="1.0" xmlns="http://www.w3.org/2000/svg"
 width="1200.000000pt" height="1200.000000pt" viewBox="0 0 1200.000000 1200.000000"
 preserveAspectRatio="xMidYMid meet">
<metadata>
Created by potrace 1.16, written by Peter Selinger 2001-2019
</metadata>
<g transform="translate(0.000000,1200.000000) scale(0.100000,-0.100000)"
fill="#000000" stroke="none">
<path d="M5745 11124 c-507 -25 -947 -103 -1385 -245 -1748 -567 -3065 -2050
-3419 -3849 -117 -596 -126 -1240 -25 -1845 95 -575 303 -1159 589 -1660 371
-651 901 -1233 1510 -1660 1038 -727 2300 -1035 3580 -874 328 41 733 137
1043 249 724 259 1348 655 1892 1200 833 832 1338 1891 1465 3070 22 203 30
646 16 855 -77 1092 -462 2068 -1150 2910 -58 72 -205 229 -326 351 -293 294
-494 459 -812 668 -211 138 -341 211 -568 322 -560 272 -1127 430 -1755 488
-159 15 -529 26 -655 20z m450 -294 c1060 -63 2012 -442 2840 -1131 225 -187
549 -532 741 -789 752 -1004 1077 -2252 913 -3509 -218 -1679 -1339 -3139
-2914 -3796 -419 -175 -900 -297 -1365 -347 -194 -20 -804 -17 -995 5 -961
115 -1797 469 -2540 1076 -152 124 -485 453 -604 596 -847 1019 -1234 2251
-1115 3549 127 1396 866 2668 2024 3484 366 258 833 491 1260 631 570 186
1173 265 1755 231z"/>
<path d="M2406 6944 c-344 -68 -576 -289 -666 -634 -28 -107 -39 -393 -20
-522 53 -366 276 -632 610 -729 94 -27 356 -38 481 -19 91 13 227 50 301 82
l48 20 0 144 c0 79 -2 144 -4 144 -2 0 -39 -16 -82 -36 -142 -64 -233 -86
-389 -91 -110 -4 -154 -2 -205 11 -210 53 -354 200 -417 426 -26 94 -26 416 0
510 63 226 207 373 417 426 51 13 95 15 205 11 156 -5 247 -27 389 -91 43 -20
80 -36 82 -36 2 0 4 65 4 143 l0 144 -27 13 c-63 29 -203 72 -282 85 -104 19
-351 18 -445 -1z"/>
<path d="M4180 6945 c-313 -67 -524 -292 -606 -645 -25 -103 -30 -432 -10
-550 68 -387 285 -635 619 -704 101 -21 313 -21 415 0 306 62 515 280 603 625
30 119 38 433 15 569 -67 386 -286 636 -618 704 -96 20 -326 20 -418 1z m351
-271 c156 -46 281 -192 341 -401 21 -69 23 -100 23 -278 0 -179 -2 -208 -23
-280 -34 -116 -79 -201 -145 -272 -99 -105 -188 -143 -338 -143 -260 0 -427
161 -494 475 -20 96 -20 342 1 442 49 238 171 399 344 454 71 23 217 25 291 3z"/>
<path d="M6081 6945 c-165 -37 -267 -90 -353 -182 -86 -93 -118 -188 -118
-349 0 -220 82 -350 280 -442 49 -23 159 -56 314 -94 277 -68 370 -103 419
-157 46 -51 60 -98 55 -181 -3 -57 -9 -77 -34 -112 -66 -95 -191 -138 -397
-138 -195 0 -354 35 -549 121 -49 21 -91 39 -93 39 -3 0 -5 -71 -5 -159 l0
-159 78 -21 c234 -65 313 -75 557 -75 206 0 238 2 310 22 232 64 393 201 440
376 14 50 17 91 13 184 -4 114 -6 124 -41 194 -76 155 -211 238 -499 309 -361
88 -446 117 -500 175 -36 39 -48 74 -48 142 1 111 66 192 189 234 60 21 84 23
256 23 214 -1 292 -14 450 -80 47 -19 87 -35 90 -35 3 0 5 65 5 144 l0 144
-65 22 c-147 49 -239 62 -470 66 -167 3 -235 0 -284 -11z"/>
<path d="M8965 6911 c-200 -57 -363 -190 -449 -366 -85 -173 -110 -318 -103
-593 4 -171 8 -210 31 -297 47 -179 124 -314 243 -425 124 -116 260 -178 411
-188 l82 -5 0 -328 0 -329 150 0 150 0 0 330 0 330 58 0 c80 0 198 32 285 77
96 49 235 188 295 294 55 98 96 218 117 348 14 82 17 142 12 299 -6 234 -28
338 -103 490 -79 161 -237 304 -397 359 -63 22 -84 25 -181 21 -96 -3 -120 -8
-174 -32 -102 -47 -165 -133 -197 -269 -12 -51 -15 -173 -15 -686 l0 -624 -55
6 c-152 16 -293 170 -357 392 -20 71 -23 101 -23 275 0 221 14 293 82 422 44
84 137 186 197 219 l46 24 0 137 c0 159 7 151 -105 119z m693 -271 c85 -52
174 -176 216 -300 36 -108 46 -185 46 -355 0 -177 -21 -298 -70 -401 -59 -122
-212 -245 -325 -261 l-47 -6 5 609 c4 635 5 653 48 708 26 32 79 35 127 6z"/>
</g>
</svg>
